<svg width="17" height="20" viewBox="0 0 17 20" fill="none" xmlns="http://www.w3.org/2000/svg">
<path fill-rule="evenodd" clip-rule="evenodd" d="M2 0C0.895431 0 0 0.895431 0 2V18C0 19.1046 0.89543 20 2 20H15C16.1046 20 17 19.1046 17 18V2C17 0.895431 16.1046 0 15 0H2ZM1.99866 3C1.99866 2.44772 2.44637 2 2.99866 2H13.9987C14.5509 2 14.9987 2.44772 14.9987 3V5C14.9987 5.55228 14.5509 6 13.9987 6H2.99866C2.44637 6 1.99866 5.55228 1.99866 5V3ZM3.00103 8.5C3.00103 7.67157 3.6726 7 4.50103 7C5.32946 7 6.00103 7.67157 6.00103 8.5C6.00103 9.32843 5.32946 10 4.50103 10C3.6726 10 3.00103 9.32843 3.00103 8.5ZM4.50103 11C3.6726 11 3.00103 11.6716 3.00103 12.5C3.00103 13.3284 3.6726 14 4.50103 14C5.32946 14 6.00103 13.3284 6.00103 12.5C6.00103 11.6716 5.32946 11 4.50103 11ZM6.99968 8.5C6.99968 7.67157 7.67126 7 8.49969 7C9.32811 7 9.99969 7.67157 9.99969 8.5C9.99969 9.32843 9.32811 10 8.49969 10C7.67126 10 6.99968 9.32843 6.99968 8.5ZM8.49969 11C7.67126 11 6.99968 11.6716 6.99968 12.5C6.99968 13.3284 7.67126 14 8.49969 14C9.32811 14 9.99969 13.3284 9.99969 12.5C9.99969 11.6716 9.32811 11 8.49969 11ZM11.0004 8.5C11.0004 7.67157 11.672 7 12.5004 7C13.3289 7 14.0004 7.67157 14.0004 8.5C14.0004 9.32843 13.3289 10 12.5004 10C11.672 10 11.0004 9.32843 11.0004 8.5ZM12.5004 11C11.672 11 11.0004 11.6716 11.0004 12.5C11.0004 13.3284 11.672 14 12.5004 14C13.3289 14 14.0004 13.3284 14.0004 12.5C14.0004 11.6716 13.3289 11 12.5004 11ZM3.00103 16.5C3.00103 15.6716 3.6726 15 4.50103 15C5.32946 15 6.00103 15.6716 6.00103 16.5C6.00103 17.3284 5.32946 18 4.50103 18C3.6726 18 3.00103 17.3284 3.00103 16.5ZM8.49969 15C7.67126 15 6.99968 15.6716 6.99968 16.5C6.99968 17.3284 7.67126 18 8.49969 18C9.32811 18 9.99969 17.3284 9.99969 16.5C9.99969 15.6716 9.32811 15 8.49969 15ZM11.0004 16.5C11.0004 15.6716 11.672 15 12.5004 15C13.3289 15 14.0004 15.6716 14.0004 16.5C14.0004 17.3284 13.3289 18 12.5004 18C11.672 18 11.0004 17.3284 11.0004 16.5Z" fill="white"/>
</svg>
